<svg xmlns="http://www.w3.org/2000/svg" viewBox="0 0 470.12 133.81"><defs><style>.cls-1{fill:#fff;}</style></defs><title>Logo-hrz-blanco</title><g id="Capa_2" data-name="Capa 2"><g id="Capa_1-2" data-name="Capa 1"><g id="Logo-hrz-blanco"><path class="cls-1" d="M129.78,62.71v-.46A19.35,19.35,0,0,0,139.69,53c2.17-4.35,3.25-9.92,3.25-16.88V30.82c0-10.53-2.47-18.27-7.28-23.22C130.85,2.49,123.11,0,112.58,0H70.63C62.42.15,56.07,2.32,51.26,6.67,46.3,2.17,39.66,0,31,0Q16.13,0,8.21,8.38C3.1,14.09.46,22,.46,32.36a42.26,42.26,0,0,0,5,20.29c3.42,6,9.31,12.7,17.66,20.13,6.67,5.88,11.31,10.84,13.77,15a27.2,27.2,0,0,1,3.74,14.4c0,4.5-.93,7.92-2.64,9.92a10.31,10.31,0,0,1-7.91,3.1c-7.11,0-10.67-4.18-10.67-12.7V93.68L0,75.58V101c0,10.69,2.64,18.75,7.74,24.32,5,5.74,12.55,8.53,22.47,8.53,8.82,0,15.63-2.18,20.73-6.67,5.13,4.49,12,6.67,20.76,6.67a10,10,0,0,0,2.32-.18h40c10.07,0,17.81-2.61,23.08-8s7.89-13.33,7.89-23.54V90.6C144.94,75.58,139.84,66.28,129.78,62.71ZM38.56,59c-6.64-5.74-11.31-10.67-13.92-14.87A24.78,24.78,0,0,1,20.9,31c0-8.21,3.42-12.39,10.24-12.39,3.25,0,5.88.93,7.59,3s2.62,5.4,2.62,9.74V61.64C40.42,60.71,39.49,59.78,38.56,59Zm33.78,56.22c-7,0-10.55-4.18-10.55-12.7V31.43c0-8.5,3.56-12.85,10.55-12.85s10.52,4.35,10.52,12.85V43.84H102.2V32.68a46.38,46.38,0,0,0-1.85-13.63h11.77c3.56,0,6.2,1.07,7.91,3.25,1.54,2.17,2.47,5.74,2.47,10.52v7.45c0,5.11-1.08,8.82-3.1,11s-5.11,3.1-9.14,3.1H68.14l14.72,19v29.11C82.86,111,79.44,115.22,72.34,115.22Zm52.16-13.8c0,4.81-.93,8.23-2.61,10.23s-4.35,2.94-7.92,2.94H100.4a46.32,46.32,0,0,0,1.8-13.46V73.56h9.14c4.66,0,8.06,1.24,10.08,3.56s3.08,6.5,3.08,12.7Z"/><path class="cls-1" d="M168.82,58.63q-3.48-3.85-3.48-11.05V44.19h8.81v4.07Q174.15,54,179,54a4.55,4.55,0,0,0,3.6-1.4q1.23-1.4,1.23-4.53a12.55,12.55,0,0,0-1.69-6.57,31.5,31.5,0,0,0-6.27-6.82,37.67,37.67,0,0,1-8-9.19,18.79,18.79,0,0,1-2.29-9.27q0-7,3.56-10.89T179.41,1.5q6.69,0,10.12,3.85T193,16.41v2.45h-8.81v-3A6.79,6.79,0,0,0,183,11.37a4.26,4.26,0,0,0-3.47-1.4c-3.1,0-4.66,1.89-4.66,5.67a11.2,11.2,0,0,0,1.74,6,33.22,33.22,0,0,0,6.31,6.77q5.85,5.09,8.05,9.24a20.44,20.44,0,0,1,2.2,9.74q0,7.29-3.6,11.18t-10.46,3.9Q172.29,62.49,168.82,58.63Z"/><path class="cls-1" d="M198.46,2.34h25.42v8.48h-16.1V26.49h12.79V35H207.78V53.17h16.1v8.47H198.46Z"/><path class="cls-1" d="M232.14,58.68q-3.52-3.82-3.52-10.76V16.07q0-6.94,3.52-10.76t10.2-3.81q6.69,0,10.21,3.81t3.52,10.76v6.27h-8.81V15.47c0-3.67-1.56-5.5-4.66-5.5s-4.66,1.83-4.66,5.5V48.59q0,5.43,4.66,5.43c3.1,0,4.66-1.81,4.66-5.43V39.53h8.81v8.39q0,6.94-3.52,10.76t-10.21,3.81Q235.65,62.49,232.14,58.68Z"/><path class="cls-1" d="M264.88,58.63q-3.57-3.85-3.56-11.05V2.34h9.32V48.26c0,2,.4,3.5,1.22,4.4a5.22,5.22,0,0,0,7,0,6.44,6.44,0,0,0,1.23-4.4V2.34h9V47.58q0,7.2-3.56,11.05t-10.33,3.86Q268.43,62.49,264.88,58.63Z"/><path class="cls-1" d="M295.71,2.34h13.81q7.2,0,10.5,3.35T323.32,16v3.64q0,9.24-6.1,11.69v.17A7.3,7.3,0,0,1,322,35.63a21,21,0,0,1,1.4,8.39V54.44a38.05,38.05,0,0,0,.17,4.11,10,10,0,0,0,.85,3.09h-9.49a13.27,13.27,0,0,1-.68-2.71,41.55,41.55,0,0,1-.17-4.58V43.51q0-4.07-1.31-5.67c-.88-1.08-2.39-1.61-4.53-1.61H305V61.64h-9.32Zm12.71,25.42a5.59,5.59,0,0,0,4.19-1.44q1.39-1.44,1.4-4.83V16.91a7.52,7.52,0,0,0-1.15-4.65,4.31,4.31,0,0,0-3.6-1.44H305V27.76Z"/><path class="cls-1" d="M329.84,2.34h9.32v59.3h-9.32Z"/><path class="cls-1" d="M353.39,10.82h-9.74V2.34h28.8v8.48h-9.74V61.64h-9.32Z"/><path class="cls-1" d="M385.84,36.4,374.57,2.34h9.91l6.35,21.77H391l6.35-21.77h9.07L395.15,36.4V61.64h-9.31Z"/><path class="cls-1" d="M169.84,129.22q-3.57-3.85-3.56-11V87q0-7.2,3.56-11.06t10.33-3.85q6.78,0,10.33,3.85T194.06,87v5.08h-8.81V86.4q0-5.84-4.83-5.84t-4.83,5.84v32.45q0,5.76,4.83,5.76t4.83-5.76V107.24h-4.66V98.77h13.47v19.4q0,7.2-3.56,11t-10.33,3.86Q173.39,133.08,169.84,129.22Z"/><path class="cls-1" d="M203.29,129.22q-3.56-3.85-3.55-11V72.93h9.31v45.92a6.44,6.44,0,0,0,1.23,4.4,5.22,5.22,0,0,0,7,0,6.44,6.44,0,0,0,1.23-4.4V72.93h9v45.24q0,7.2-3.56,11t-10.33,3.86Q206.85,133.08,203.29,129.22Z"/><path class="cls-1" d="M241.16,72.93h12.62l9.65,59.3h-9.31l-1.7-11.77v.16H241.83l-1.69,11.61H231.5Zm10.16,39.65-4.15-29.31H247l-4.07,29.31Z"/><path class="cls-1" d="M267.92,72.93h13.81q7.2,0,10.51,3.35t3.3,10.29v3.64q0,9.24-6.1,11.69v.17a7.32,7.32,0,0,1,4.79,4.15,21,21,0,0,1,1.39,8.39V125a40.84,40.84,0,0,0,.17,4.11,10.64,10.64,0,0,0,.85,3.09h-9.49a14,14,0,0,1-.68-2.71,42.32,42.32,0,0,1-.16-4.58V114.1q0-4.06-1.32-5.67c-.87-1.08-2.38-1.61-4.53-1.61h-3.22v25.41h-9.32Zm12.71,25.42a5.59,5.59,0,0,0,4.19-1.44c.94-1,1.4-2.57,1.4-4.83V87.5a7.58,7.58,0,0,0-1.14-4.66,4.34,4.34,0,0,0-3.6-1.44h-4.24V98.35Z"/><path class="cls-1" d="M302.06,72.93h14.23q6.94,0,10.42,3.73t3.47,10.93v30q0,7.2-3.47,10.92t-10.42,3.73H302.06Zm14.06,50.83a4.49,4.49,0,0,0,3.52-1.36,6.44,6.44,0,0,0,1.23-4.4V87.17a6.46,6.46,0,0,0-1.23-4.41,4.52,4.52,0,0,0-3.52-1.36h-4.74v42.36Z"/><path class="cls-1" d="M350,72.93h14.07q7.2,0,10.5,3.35t3.3,10.29v2.37a16.28,16.28,0,0,1-1.48,7.46,8.71,8.71,0,0,1-4.53,4.15v.17q6.94,2.37,6.94,12.37v5.08q0,6.85-3.6,10.46t-10.54,3.6H350Zm13,24.15a5.61,5.61,0,0,0,4.2-1.44q1.39-1.44,1.39-4.83V87.5a7.58,7.58,0,0,0-1.14-4.66,4.34,4.34,0,0,0-3.6-1.44h-4.49V97.08Zm1.7,26.68a4.68,4.68,0,0,0,3.64-1.31c.79-.88,1.19-2.39,1.19-4.54v-5.16q0-4.06-1.4-5.64t-4.62-1.56h-4.15v18.21Z"/><path class="cls-1" d="M391.43,72.93h12.62l9.65,59.3h-9.31l-1.7-11.77v.16H392.1l-1.69,11.61h-8.64Zm10.16,39.65-4.15-29.31h-.17l-4.07,29.31Z"/><path class="cls-1" d="M416.07,132.23v-8.47a12.43,12.43,0,0,0,3.05.34,5.53,5.53,0,0,0,4.15-1.4,5.91,5.91,0,0,0,1.36-4.28V72.93H434v45.24q0,7.29-3.35,10.84t-10.21,3.56A24.09,24.09,0,0,1,416.07,132.23Z"/><path class="cls-1" d="M447.84,72.93h12.62l9.66,59.3H460.8l-1.69-11.77v.16H448.52l-1.7,11.61h-8.64ZM458,112.58l-4.15-29.31h-.17l-4.06,29.31Z"/></g></g></g></svg>